<?xml version="1.0" encoding="UTF-8" standalone="no"?>
<svg
   width="3431"
   height="3372"
   xml:space="preserve"
   overflow="hidden"
   version="1.1"
   id="svg284"
   sodipodi:docname="fastqToBamPP.svg"
   inkscape:version="1.2.2 (732a01da63, 2022-12-09)"
   xmlns:inkscape="http://www.inkscape.org/namespaces/inkscape"
   xmlns:sodipodi="http://sodipodi.sourceforge.net/DTD/sodipodi-0.dtd"
   xmlns="http://www.w3.org/2000/svg"
   xmlns:svg="http://www.w3.org/2000/svg"><sodipodi:namedview
     id="namedview286"
     pagecolor="#ffffff"
     bordercolor="#000000"
     borderopacity="0.25"
     inkscape:showpageshadow="2"
     inkscape:pageopacity="0.0"
     inkscape:pagecheckerboard="0"
     inkscape:deskcolor="#d1d1d1"
     showgrid="false"
     showguides="false"
     inkscape:zoom="0.13997628"
     inkscape:cx="1828.8814"
     inkscape:cy="1893.178"
     inkscape:window-width="1280"
     inkscape:window-height="961"
     inkscape:window-x="-8"
     inkscape:window-y="-7"
     inkscape:window-maximized="1"
     inkscape:current-layer="svg284" /><defs
     id="defs148"><clipPath
       id="clip0"><rect
         x="72"
         y="103"
         width="3431"
         height="3372"
         id="rect145" /></clipPath><clipPath
       id="clip0-9"><rect
         x="21"
         y="29"
         width="998"
         height="982"
         id="rect446" /></clipPath><clipPath
       id="clip0-7"><rect
         x="21"
         y="29"
         width="998"
         height="982"
         id="rect652" /></clipPath></defs><g
     clip-path="url(#clip0-7)"
     transform="matrix(3.5539534,0,0,3.5539534,-90.46515,-91.021047)"
     id="g785"><text
       font-family="Calibri, Calibri_MSFontService, sans-serif"
       font-weight="400"
       font-size="24px"
       transform="translate(333.431,59)"
       id="text657">Check input </text><text
       font-family="Calibri, Calibri_MSFontService, sans-serif"
       font-weight="400"
       font-size="24px"
       transform="translate(454.431,59)"
       id="text659">samplesheet</text><text
       font-family="Calibri, Calibri_MSFontService, sans-serif"
       font-weight="400"
       font-size="24px"
       transform="translate(583.971,59)"
       id="text661">(list.csv)</text><text
       font-family="Calibri, Calibri_MSFontService, sans-serif"
       font-weight="400"
       font-size="24px"
       transform="translate(351.347,209)"
       id="text663">Fasta</text><text
       font-family="Calibri, Calibri_MSFontService, sans-serif"
       font-weight="400"
       font-size="24px"
       transform="translate(406.973,209)"
       id="text665">index</text><text
       font-family="Calibri, Calibri_MSFontService, sans-serif"
       font-weight="400"
       font-size="24px"
       transform="translate(465.28,209)"
       id="text667">bwa</text><text
       font-family="Calibri, Calibri_MSFontService, sans-serif"
       font-weight="400"
       font-size="24px"
       transform="translate(35.6281,209)"
       id="text669">Fasta</text><text
       font-family="Calibri, Calibri_MSFontService, sans-serif"
       font-weight="400"
       font-size="24px"
       transform="translate(91.2548,209)"
       id="text671">indices</text><text
       font-family="Calibri, Calibri_MSFontService, sans-serif"
       font-weight="400"
       font-size="24px"
       transform="translate(164.588,209)"
       id="text673">samtools</text><text
       font-family="Calibri, Calibri_MSFontService, sans-serif"
       font-weight="400"
       font-size="24px"
       transform="translate(257.801,209)"
       id="text675">faidx</text><text
       font-family="Calibri, Calibri_MSFontService, sans-serif"
       font-weight="400"
       font-size="24px"
       transform="translate(567.008,209)"
       id="text677">Quality and </text><text
       font-family="Calibri, Calibri_MSFontService, sans-serif"
       font-weight="400"
       font-size="24px"
       transform="translate(685.008,209)"
       id="text679">adapter</text><text
       font-family="Calibri, Calibri_MSFontService, sans-serif"
       font-weight="400"
       font-size="24px"
       transform="translate(766.809,209)"
       id="text681">trimming</text><text
       font-family="Calibri, Calibri_MSFontService, sans-serif"
       font-weight="400"
       font-size="24px"
       transform="translate(861.975,209)"
       id="text683">(</text><text
       font-family="Calibri, Calibri_MSFontService, sans-serif"
       font-weight="400"
       font-size="24px"
       transform="translate(869.309,209)"
       id="text685">TrimGalore</text><text
       font-family="Calibri, Calibri_MSFontService, sans-serif"
       font-weight="400"
       font-size="24px"
       transform="translate(977.342,209)"
       id="text687">)</text><text
       font-family="Calibri, Calibri_MSFontService, sans-serif"
       font-weight="400"
       font-size="24px"
       transform="translate(589.656,329)"
       id="text689">Windowed</text><text
       font-family="Calibri, Calibri_MSFontService, sans-serif"
       font-weight="400"
       font-size="24px"
       transform="translate(701.516,329)"
       id="text691">adaptive </text><text
       font-family="Calibri, Calibri_MSFontService, sans-serif"
       font-weight="400"
       font-size="24px"
       transform="translate(791.343,329)"
       id="text693">trimming</text><text
       font-family="Calibri, Calibri_MSFontService, sans-serif"
       font-weight="400"
       font-size="24px"
       transform="translate(886.51,329)"
       id="text695">(</text><text
       font-family="Calibri, Calibri_MSFontService, sans-serif"
       font-weight="400"
       font-size="24px"
       transform="translate(893.843,329)"
       id="text697">sickle</text><text
       font-family="Calibri, Calibri_MSFontService, sans-serif"
       font-weight="400"
       font-size="24px"
       transform="translate(947.177,329)"
       id="text699">)</text><text
       font-family="Calibri, Calibri_MSFontService, sans-serif"
       font-weight="400"
       font-size="24px"
       transform="translate(818.194,450)"
       id="text701">Read QC</text><text
       font-family="Calibri, Calibri_MSFontService, sans-serif"
       font-weight="400"
       font-size="24px"
       transform="translate(475.036,494)"
       id="text703">Alignment</text><text
       font-family="Calibri, Calibri_MSFontService, sans-serif"
       font-weight="400"
       font-size="24px"
       transform="translate(415.402,696)"
       id="text705">Finding duplicate reads in BAM file (</text><text
       font-family="Calibri, Calibri_MSFontService, sans-serif"
       font-weight="400"
       font-size="24px"
       transform="translate(766.176,696)"
       id="text707">Sambamba</text><text
       font-family="Calibri, Calibri_MSFontService, sans-serif"
       font-weight="400"
       font-size="24px"
       transform="translate(875.342,696)"
       id="text709">-</text><text
       font-family="Calibri, Calibri_MSFontService, sans-serif"
       font-weight="400"
       font-size="24px"
       transform="translate(882.676,696)"
       id="text711">markdup</text><text
       font-family="Calibri, Calibri_MSFontService, sans-serif"
       font-weight="400"
       font-size="24px"
       transform="translate(969.856,696)"
       id="text713">)</text><text
       font-family="Calibri, Calibri_MSFontService, sans-serif"
       font-weight="400"
       font-size="24px"
       transform="translate(420.304,834)"
       id="text715">Quality control of bam alignment data (</text><text
       font-family="Calibri, Calibri_MSFontService, sans-serif"
       font-weight="400"
       font-size="24px"
       transform="translate(804.598,834)"
       id="text717">Qualimap</text><text
       font-family="Calibri, Calibri_MSFontService, sans-serif"
       font-weight="400"
       font-size="24px"
       transform="translate(904.764,834)"
       id="text719">bamqc</text><text
       font-family="Calibri, Calibri_MSFontService, sans-serif"
       font-weight="400"
       font-size="24px"
       transform="translate(970.931,834)"
       id="text721">)</text><text
       font-family="Calibri, Calibri_MSFontService, sans-serif"
       font-weight="400"
       font-size="24px"
       transform="translate(35.6281,782)"
       id="text723">Custom </text><text
       font-family="Calibri, Calibri_MSFontService, sans-serif"
       font-weight="400"
       font-size="24px"
       transform="translate(115.295,782)"
       id="text725">dump</text><text
       font-family="Calibri, Calibri_MSFontService, sans-serif"
       font-weight="400"
       font-size="24px"
       transform="translate(177.961,782)"
       id="text727">(diverse </text><text
       font-family="Calibri, Calibri_MSFontService, sans-serif"
       font-weight="400"
       font-size="24px"
       transform="translate(260.815,782)"
       id="text729">softwareversions</text><text
       font-family="Calibri, Calibri_MSFontService, sans-serif"
       font-weight="400"
       font-size="24px"
       transform="translate(426.468,782)"
       id="text731">)</text><text
       font-family="Calibri, Calibri_MSFontService, sans-serif"
       font-weight="400"
       font-size="24px"
       transform="translate(119.413,950)"
       id="text733">Present QC for raw reads</text><text
       font-family="Calibri, Calibri_MSFontService, sans-serif"
       font-weight="400"
       font-size="24px"
       transform="translate(560.091,950)"
       id="text735">Present</text><text
       font-family="Calibri, Calibri_MSFontService, sans-serif"
       font-weight="400"
       font-size="24px"
       transform="translate(639.724,950)"
       id="text737">QC </text><text
       font-family="Calibri, Calibri_MSFontService, sans-serif"
       font-weight="400"
       font-size="24px"
       transform="translate(674.224,950)"
       id="text739">for</text><text
       font-family="Calibri, Calibri_MSFontService, sans-serif"
       font-weight="400"
       font-size="24px"
       transform="translate(707.551,950)"
       id="text741">bam </text><text
       font-family="Calibri, Calibri_MSFontService, sans-serif"
       font-weight="400"
       font-size="24px"
       transform="translate(756.384,950)"
       id="text743">alignment</text><path
       d="M 0.862071,-1.80467 215.952,100.941 214.227,104.551 -0.862071,1.80467 Z M 215.871,96.4697 l 8.242,10.5863 -13.414,0.242 z"
       fill="#ff0000"
       transform="matrix(-1,0,0,1,394.113,75)"
       id="path745" /><path
       d="M 1.68446,-1.07824 64.2369,96.643 60.868,98.7994 -1.68446,1.07824 Z M 66.5276,92.802 l 1.416,13.342 -11.5228,-6.8725 z"
       fill="#ff0000"
       transform="matrix(-1,0,0,1,503.944,76)"
       id="path747" /><path
       d="m 584.933,78.231 183.493,96.787 -1.866,3.538 -183.493,-96.787 z m 183.59,92.316 7.815,10.905 -13.413,-0.291 z"
       fill="#ff0000"
       id="path749" /><path
       d="m 778,225 v 66.843 h -4 V 225 Z m 4,64.843 -6,12 -6,-12 z"
       fill="#ff0000"
       id="path751" /><path
       d="m 864,346 v 66.843 h -4 V 346 Z m 4,64.843 -6,12 -6,-12 z"
       fill="#ff0000"
       id="path753" /><path
       d="m 437.856,226.255 92.583,230.548 -3.712,1.491 -92.583,-230.549 z m 95.55,227.201 -1.096,13.372 -10.04,-8.9 z"
       fill="#ff0000"
       id="path755" /><path
       d="M 0.890081,-1.79102 235.681,114.893 233.901,118.475 -0.890081,1.79102 Z M 235.671,110.421 l 8.076,10.713 -13.417,0.033 z"
       fill="#ff0000"
       transform="matrix(-1,0,0,1,775.747,346)"
       id="path757" /><path
       d="M 0.953518,-1.75807 556.027,299.296 554.12,302.812 -0.953518,1.75807 Z M 556.174,294.824 l 7.688,10.996 -13.409,-0.447 z"
       fill="#0070c0"
       transform="matrix(-1,0,0,1,808.862,450)"
       id="path759" /><path
       d="M 1.88058,-0.680754 189.8,518.446 186.039,519.808 -1.88058,0.680754 Z M 192.881,515.206 l -1.557,13.326 -9.726,-9.242 z"
       fill="#0070c0"
       transform="matrix(-1,0,0,1,436.324,227)"
       id="path761" /><path
       d="M 1.136,-1.64606 577.265,395.96 574.993,399.252 -1.136,1.64606 Z M 577.89,391.531 l 6.469,11.754 -13.285,-1.877 z"
       fill="#0070c0"
       transform="matrix(-1,0,0,1,829.359,352)"
       id="path763" /><path
       d="m 534.332,507.508 171.644,153.233 -2.664,2.984 -171.644,-153.233 z m 172.816,148.918 4.956,12.467 -12.948,-3.516 z"
       fill="#ff0000"
       id="path765" /><path
       d="m 703,713 v 84.355 h -4 V 713 Z m 4,82.355 -6,12 -6,-12 z"
       fill="#ff0000"
       id="path767" /><path
       d="M 1.5974,-1.20346 393.767,519.337 390.572,521.744 -1.5974,1.20346 Z M 395.761,515.337 l 2.429,13.195 -12.013,-5.975 z"
       fill="#0070c0"
       transform="matrix(-1,0,0,1,643.19,227)"
       id="path769" /><path
       d="M 1.30426,-1.51621 278.699,237.102 276.091,240.134 -1.30426,1.51621 Z M 279.791,232.765 l 5.185,12.374 -13.01,-3.277 z"
       fill="#0070c0"
       transform="matrix(-1,0,0,1,529.976,510)"
       id="path771" /><path
       d="M 0.181477,-1.99175 444.655,38.5062 444.292,42.4897 -0.181477,1.99175 Z M 443.027,34.3412 l 11.406,7.0642 -12.495,4.8863 z"
       fill="#0070c0"
       transform="matrix(-1,0,0,1,699.433,714)"
       id="path773" /><path
       d="M 1.1092,-1.66423 611.793,405.352 609.574,408.681 -1.1092,1.66423 Z M 612.349,400.916 l 6.657,11.648 -13.313,-1.663 z"
       fill="#ff0000"
       transform="matrix(-1,0,0,1,862.006,510)"
       id="path775" /><path
       d="M 1.99978,-0.0297308 3.58719,106.744 -0.412371,106.803 -1.99978,0.0297308 Z M 7.55702,104.685 1.73606,116.773 -4.44166,104.863 Z"
       fill="#ff0000"
       transform="matrix(-1,0,0,1,244.736,806)"
       id="path777" /><path
       d="m 246.49,804.061 455.178,114.913 -0.979,3.878 L 245.51,807.939 Z m 454.218,110.545 10.167,8.755 -13.104,2.88 z"
       fill="#ff0000"
       id="path779" /><path
       d="m 712,843 v 70.608 h -4 V 843 Z m 4,68.608 -6,12 -6,-12 z"
       fill="#ff0000"
       id="path781" /><path
       d="m 860,465 v 47.921"
       stroke="#ff0000"
       stroke-width="4"
       stroke-miterlimit="8"
       fill="none"
       fill-rule="evenodd"
       id="path783" /></g></svg>
